<mxfile host="app.diagrams.net" modified="2024-06-07T07:07:22.121Z" agent="Mozilla/5.0 (Windows NT 10.0; Win64; x64) AppleWebKit/537.36 (KHTML, like Gecko) Chrome/125.0.0.0 Safari/537.36 Edg/125.0.0.0" etag="0nf4uGkt3EgpHdiN1VlW" version="24.2.2" type="github">
  <diagram name="第 1 页" id="GBd7Jc7VdTxVBdFkuDs7">
    <mxGraphModel dx="1282" dy="577" grid="1" gridSize="10" guides="1" tooltips="1" connect="1" arrows="1" fold="1" page="1" pageScale="1" pageWidth="827" pageHeight="1169" math="0" shadow="0">
      <root>
        <mxCell id="0" />
        <mxCell id="1" parent="0" />
        <mxCell id="_OdP8fe9HPRAu60lT5_M-3" value="新建申请单" style="strokeWidth=2;html=1;shape=mxgraph.flowchart.start_1;whiteSpace=wrap;" vertex="1" parent="1">
          <mxGeometry x="330" y="40" width="100" height="60" as="geometry" />
        </mxCell>
        <mxCell id="_OdP8fe9HPRAu60lT5_M-4" value="选择申请单类型" style="strokeWidth=2;html=1;shape=mxgraph.flowchart.decision;whiteSpace=wrap;" vertex="1" parent="1">
          <mxGeometry x="277.5" y="190" width="205" height="160" as="geometry" />
        </mxCell>
        <mxCell id="_OdP8fe9HPRAu60lT5_M-5" style="edgeStyle=orthogonalEdgeStyle;rounded=0;orthogonalLoop=1;jettySize=auto;html=1;entryX=0.5;entryY=0;entryDx=0;entryDy=0;entryPerimeter=0;" edge="1" parent="1" source="_OdP8fe9HPRAu60lT5_M-3" target="_OdP8fe9HPRAu60lT5_M-4">
          <mxGeometry relative="1" as="geometry" />
        </mxCell>
      </root>
    </mxGraphModel>
  </diagram>
</mxfile>
